<svg width="47" height="16" viewBox="0 0 47 16" fill="none" xmlns="http://www.w3.org/2000/svg">
<g clip-path="url(#clip0_663_19)">
<path d="M8.59442 6.60328L9.79529 10.0722H7.3593L8.59442 6.60328ZM5.99844 1.2085L0.499695 15.9968H5.29662L6.04321 13.8537H11.1022L11.8468 15.9968H16.7484L11.2543 1.2085H5.99844Z" fill="white"/>
<path d="M40.5522 0L39.0505 4.04061H41.9579L46.0852 0H40.5522Z" fill="#EC1C24"/>
<path d="M46.5023 10.1397C46.5023 6.86416 44.4501 4.59668 40.858 4.59668C37.5122 4.59668 35.0466 6.86094 35.0466 10.3053C35.0466 13.7014 37.3324 15.9966 40.9239 15.9966C43.9471 15.9966 46.025 14.4755 46.4694 11.7672H42.1024C41.9134 12.3215 41.4624 12.5406 40.9219 12.5406C40.1101 12.5406 39.667 12.0952 39.4946 11.1723H46.5023V10.1397ZM39.5933 9.18514C39.7908 8.48775 40.1858 8.05333 40.8482 8.05333C41.4875 8.05333 41.9055 8.56896 42.0043 9.18514H39.5933Z" fill="white"/>
<path d="M34.5708 9.34592C34.0296 9.10551 33.5621 9.00883 32.8735 9.00883C31.8155 9.00883 31.2005 9.41876 31.0531 9.97564V15.9969H26.3786V5.06039H31.0531V5.95114C31.6456 5.27696 32.4554 4.81934 33.6115 4.81934C34.0546 4.81934 34.4016 4.91602 34.5708 5.0127V9.34592Z" fill="white"/>
<path d="M25.4855 9.34592C24.9443 9.10551 24.4762 9.00883 23.7875 9.00883C22.7295 9.00883 22.1146 9.41876 21.9671 9.97564V15.9969H17.2927V5.06039H21.9671V5.95114C22.5597 5.27696 23.3695 4.81934 24.5256 4.81934C24.9687 4.81934 25.3156 4.91602 25.4855 5.0127V9.34592Z" fill="white"/>
</g>
<defs>
<clipPath id="clip0_663_19">
<rect width="46" height="16" fill="white" transform="translate(0.499695)"/>
</clipPath>
</defs>
</svg>
