<svg width="32" height="32" viewBox="0 0 32 32" fill="none" xmlns="http://www.w3.org/2000/svg">
<path d="M15.9999 7C14.8301 7 13.8799 7.96998 13.8799 9.16412V9.84112C11.9079 10.688 10.5172 12.678 10.5172 15.0001V16.7213C10.5172 17.6351 10.2735 18.5328 9.81299 19.3171L8.65834 21.2819C8.45164 21.6336 8.44754 22.07 8.64472 22.425C8.84064 22.7777 9.20747 23.0002 9.61059 23.0002H22.3891C22.7898 23.0002 23.1577 22.78 23.3547 22.4274C23.5547 22.0695 23.546 21.6309 23.3424 21.2831L22.1872 19.3174C21.7262 18.5334 21.4826 17.6353 21.4826 16.7213V15.0001C21.4826 12.678 20.0918 10.688 18.1198 9.84112V9.16412C18.1198 7.96998 17.1696 7 15.9999 7ZM15.4295 9.16412C15.4295 8.84363 15.6859 8.58189 15.9999 8.58189C16.3138 8.58189 16.5702 8.84363 16.5702 9.16412V10.9857L17.1231 11.1544C18.7478 11.65 19.933 13.1876 19.933 15.0001V16.7213C19.933 17.922 20.253 19.1016 20.8586 20.1315L21.6148 21.4183H10.3852L11.142 20.1305C11.7467 19.1008 12.0668 17.9221 12.0668 16.7213V15.0001C12.0668 13.1876 13.2519 11.65 14.8766 11.1544L15.4295 10.9857V9.16412Z" fill="white"/>
<path d="M16.0001 25C15.0019 25 14.145 24.3978 13.7403 23.5348H18.2599C17.8552 24.3978 16.9983 25 16.0001 25Z" fill="white"/>
</svg>
