<svg width="32" height="32" viewBox="0 0 32 32" fill="none" xmlns="http://www.w3.org/2000/svg">
<path d="M16.0003 12.0625C15.6913 12.0625 15.4407 12.3323 15.4407 12.665V19.335C15.4407 19.6677 15.6913 19.9375 16.0003 19.9375C16.3094 19.9375 16.56 19.6677 16.56 19.335V12.665C16.5593 12.3323 16.3094 12.0625 16.0003 12.0625Z" fill="white"/>
<path d="M13.1847 13.7755C12.8756 13.7755 12.625 14.0453 12.625 14.378V17.622C12.625 17.9547 12.8756 18.2245 13.1847 18.2245C13.4937 18.2245 13.7443 17.9547 13.7443 17.622V14.378C13.7443 14.0453 13.4937 13.7755 13.1847 13.7755Z" fill="white"/>
<path d="M18.2557 14.378C18.2557 14.0453 18.5063 13.7755 18.8153 13.7755C19.1244 13.7755 19.375 14.0453 19.375 14.378V17.622C19.375 17.9547 19.1244 18.2245 18.8153 18.2245C18.5063 18.2245 18.2557 17.9547 18.2557 17.622V14.378Z" fill="white"/>
<path d="M11.2127 23.5134C13.127 24.4753 16.0617 25.363 18.14 24.8493C20.2183 24.3356 22.0468 23.0956 23.2984 21.3512C24.5499 19.6068 25.1428 17.4718 24.9709 15.3284C24.799 13.1849 23.8735 11.1729 22.3601 9.65238C20.8467 8.13183 18.8441 7.202 16.7107 7.02927C14.5774 6.85655 12.4524 7.45221 10.7162 8.70966C8.98002 9.96711 7.74583 11.8043 7.23453 13.8924C6.72323 15.9805 7.07423 18.394 8.03162 20.3173L7.24996 24.0047C7.17027 24.3807 7.52683 24.7023 7.89258 24.5843L11.2127 23.5134ZM9.59684 20.6491C9.67172 20.2958 9.62489 19.9275 9.46396 19.6043C8.65617 17.9815 8.37694 15.9542 8.78862 14.2729C9.20999 12.5521 10.2267 11.0398 11.6547 10.0055C13.0826 8.97136 14.829 8.48216 16.5816 8.62405C18.3342 8.76595 19.9807 9.5299 21.226 10.7811C22.4715 12.0324 23.2343 13.6895 23.376 15.4563C23.5177 17.2231 23.0289 18.9821 21.9983 20.4185C20.968 21.8546 19.4638 22.8739 17.756 23.296C17.0597 23.4682 16.085 23.426 14.9667 23.1739C13.8737 22.9274 12.784 22.5123 11.9312 22.0838C11.5558 21.8952 11.1214 21.8617 10.7216 21.9907L9.20904 22.4785L9.59684 20.6491Z" fill="white"/>
</svg>
