<svg width="48" height="48" viewBox="0 0 48 48" fill="none" xmlns="http://www.w3.org/2000/svg">
    <g filter="url(#filter0_d_663_101)">
        <rect x="0" y="0" width="48" height="48" rx="24" fill="url(#paint0_linear_663_101)"/>
        <path d="M28.2484 10.5C27.709 10.5 27.2123 10.6961 26.8492 11.0649C26.4861 11.4338 26.2931 11.9383 26.2931 12.4863V13.9695C25.4576 13.3422 24.4243 12.9713 23.3056 12.9713C20.5272 12.9713 18.2749 15.2592 18.2749 18.0815V26.2577C18.2749 29.0799 20.5272 31.3678 23.3056 31.3678C26.084 31.3678 28.3363 29.0799 28.3363 26.2577V22.154C28.8421 22.1338 29.3008 21.9388 29.6393 21.5907C29.996 21.2238 30.1814 20.7258 30.1814 20.1923V18.4784C30.1814 18.3562 30.2789 18.2571 30.3992 18.2571H31.8395C32.3654 18.2571 32.8498 18.0684 33.2049 17.7123C33.5603 17.3559 33.75 16.8678 33.75 16.3393C33.75 15.8035 33.5629 15.3121 33.2019 14.9547C32.8427 14.599 32.3573 14.4214 31.8395 14.4214H30.3992C30.2789 14.4214 30.1814 14.3223 30.1814 14.2001V12.4863C30.1814 11.9465 29.9994 11.4427 29.6421 11.0708C29.2833 10.6972 28.7892 10.5 28.2484 10.5ZM27.6003 12.4863C27.6003 12.2591 27.6766 12.1024 27.7736 12.0039C27.8706 11.9054 28.0248 11.8279 28.2484 11.8279C28.4708 11.8279 28.6164 11.9043 28.7064 11.9981C28.798 12.0935 28.8742 12.2509 28.8742 12.4863V14.2001C28.8742 15.0557 29.557 15.7493 30.3992 15.7493H31.8395C32.0624 15.7493 32.2054 15.8224 32.2895 15.9056C32.3718 15.9871 32.4428 16.1226 32.4428 16.3393C32.4428 16.5403 32.3744 16.6792 32.2865 16.7674C32.1983 16.8558 32.0542 16.9293 31.8395 16.9293H30.3992C29.557 16.9293 28.8742 17.6229 28.8742 18.4784V20.1923C28.8742 20.4111 28.8014 20.5629 28.7092 20.6576C28.6183 20.7511 28.4711 20.8279 28.2484 20.8279C27.8387 20.8279 27.6003 20.5703 27.6003 20.1923V18.4784C27.6003 17.6229 26.9175 16.9293 26.0752 16.9293H24.6349C24.437 16.9293 24.3003 16.8598 24.2135 16.7705C24.1264 16.6809 24.0541 16.5346 24.0541 16.3165C24.0541 16.1165 24.1216 15.9848 24.2045 15.9028C24.289 15.8192 24.4282 15.7493 24.6349 15.7493H26.0752C26.9175 15.7493 27.6003 15.0557 27.6003 14.2001V12.4863Z" fill="white"/>
        <path d="M30.3481 22.1696C30.3481 21.6051 30.7986 21.1475 31.3542 21.1475C31.9099 21.1475 32.3604 21.6051 32.3604 22.1696V26.2577C32.3582 30.9406 28.8928 34.8743 24.3113 35.3946V37.5H22.2991V35.3946C17.7175 34.8743 14.2522 30.9406 14.25 26.2577V22.1696C14.25 21.6051 14.7005 21.1475 15.2561 21.1475C15.8118 21.1475 16.2623 21.6051 16.2623 22.1696V26.2577C16.2623 30.2088 19.4155 33.4119 23.3052 33.4119C27.1949 33.4119 30.3481 30.2088 30.3481 26.2577V22.1696Z" fill="white"/>
    </g>
    <defs>
        <filter id="filter0_d_663_101" x="0" y="-52" width="168" height="168" filterUnits="userSpaceOnUse" color-interpolation-filters="sRGB">
            <!-- <feFlood flood-opacity="0" result="BackgroundImageFix"/> -->
            <feColorMatrix in="SourceAlpha" type="matrix" values="0 0 0 0 0 0 0 0 0 0 0 0 0 0 0 0 0 0 127 0" result="hardAlpha"/>
            <feOffset/>
            <feGaussianBlur stdDeviation="30"/>
            <feColorMatrix type="matrix" values="0 0 0 0 0.968627 0 0 0 0 0.6 0 0 0 0 0.266667 0 0 0 0.3 0"/>
            <feBlend mode="normal" in2="BackgroundImageFix" result="effect1_dropShadow_663_101"/>
            <feBlend mode="normal" in="SourceGraphic" in2="effect1_dropShadow_663_101" result="shape"/>
        </filter>
        <linearGradient id="paint0_linear_663_101" x1="0.6667" y1="16" x2="33.3333" y2="50.6667" gradientUnits="userSpaceOnUse">
            <stop stop-color="#FFA553"/>
            <stop offset="0.478064" stop-color="#EE8C34"/>
            <stop offset="1" stop-color="#EA5434"/>
        </linearGradient>
    </defs>
</svg>
