<svg width="32" height="32" viewBox="0 0 32 32" fill="none" xmlns="http://www.w3.org/2000/svg">
<path d="M16.4259 7.96452C19.0721 5.34576 23.3596 5.3451 26.0062 7.96289C28.6671 10.572 28.6616 14.8486 26.0078 17.4749L18.402 25.0018C17.0571 26.3327 14.9033 26.3327 13.5584 25.0019L5.96867 17.4908C4.71307 16.2224 4 14.5304 4 12.7307C4 10.9405 4.68432 9.24331 5.9739 7.96621C8.60026 5.34243 12.8912 5.34696 15.5356 7.98795C15.7703 8.21874 16.1703 8.22238 16.4192 7.97114L16.4259 7.96452ZM17.7496 9.31925C16.7857 10.2881 15.2029 10.323 14.2137 9.34448L14.2102 9.34099C12.2958 7.42734 9.18706 7.43205 7.29998 9.31861L7.29658 9.322C6.37495 10.2341 5.88598 11.4395 5.88598 12.7307C5.88598 14.0124 6.39069 15.2233 7.30019 16.1438L14.8794 23.6444C15.4907 24.2493 16.4697 24.2493 17.081 23.6444L24.6868 16.1174C26.5916 14.2324 26.5867 11.1836 24.6902 9.3253L24.6868 9.32193C22.7749 7.42954 19.6632 7.42853 17.7496 9.31925Z" fill="white"/>
</svg>
