<svg width="32" height="32" viewBox="0 0 32 32" fill="none" xmlns="http://www.w3.org/2000/svg">
<path fill-rule="evenodd" clip-rule="evenodd" d="M10 9.90823C10 10.1165 9.94455 10.3211 9.83922 10.5015C9.7339 10.6819 9.58242 10.8316 9.4 10.9358L5.8 12.9909C5.61758 13.095 5.41065 13.1498 5.20001 13.1498C4.98937 13.1498 4.78244 13.095 4.60001 12.9909C4.41759 12.8867 4.26611 12.737 4.16078 12.5566C4.05546 12.3762 4.00001 12.1716 4 11.9633V7.85314C4.00001 7.64486 4.05546 7.44025 4.16078 7.25988C4.26611 7.0795 4.41759 6.92972 4.60001 6.82559C4.78244 6.72145 4.98937 6.66662 5.20001 6.66663C5.41065 6.66663 5.61758 6.72145 5.8 6.82559L9.4 8.88069C9.58242 8.98482 9.7339 9.13461 9.83922 9.31498C9.94455 9.49535 10 9.69996 10 9.90823ZM5.2 15.8409C4.88174 15.8409 4.57652 15.966 4.35147 16.1885C4.12643 16.411 4 16.7128 4 17.0275C4 17.3422 4.12643 17.644 4.35147 17.8665C4.57652 18.089 4.88174 18.214 5.2 18.214H26.8C27.1183 18.214 27.4235 18.089 27.6485 17.8665C27.8736 17.644 28 17.3422 28 17.0275C28 16.7128 27.8736 16.411 27.6485 16.1885C27.4235 15.966 27.1183 15.8409 26.8 15.8409H5.2ZM12.4 9.90823C12.4 9.59354 12.5264 9.29174 12.7515 9.06922C12.9765 8.8467 13.2817 8.72169 13.6 8.72169H26.8C27.1183 8.72169 27.4235 8.8467 27.6485 9.06922C27.8736 9.29174 28 9.59354 28 9.90823C28 10.2229 27.8736 10.5247 27.6485 10.7472C27.4235 10.9698 27.1183 11.0948 26.8 11.0948H13.6C13.2817 11.0948 12.9765 10.9698 12.7515 10.7472C12.5264 10.5247 12.4 10.2229 12.4 9.90823ZM5.2 22.9602C4.88174 22.9602 4.57652 23.0852 4.35147 23.3077C4.12643 23.5303 4 23.8321 4 24.1467C4 24.4614 4.12643 24.7632 4.35147 24.9858C4.57652 25.2083 4.88174 25.3333 5.2 25.3333H26.8C27.1183 25.3333 27.4235 25.2083 27.6485 24.9858C27.8736 24.7632 28 24.4614 28 24.1467C28 23.8321 27.8736 23.5303 27.6485 23.3077C27.4235 23.0852 27.1183 22.9602 26.8 22.9602H5.2Z" fill="white"/>
</svg>
