<svg width="55" height="15" viewBox="0 0 55 15" fill="none" xmlns="http://www.w3.org/2000/svg">
<rect width="54.9994" height="15" rx="7.5" fill="#4BC7B6"/>
<path d="M4.5 9.95968C4.5 10.2612 4.74444 10.5056 5.04597 10.5056C5.3475 10.5056 5.59193 10.2612 5.59193 9.95968V5.20949C5.59193 4.90797 5.3475 4.66353 5.04597 4.66353C4.74444 4.66353 4.5 4.90797 4.5 5.20949V9.95968Z" fill="white"/>
<path d="M6.45751 8.11959C6.45751 8.42112 6.70195 8.66556 7.00348 8.66556C7.30501 8.66556 7.54945 8.42112 7.54945 8.11959V6.97028C7.54945 6.66875 7.30501 6.42431 7.00348 6.42431C6.70195 6.42431 6.45751 6.66875 6.45751 6.97028V8.11959Z" fill="white"/>
<path d="M8.42095 9.60203C8.42095 9.90356 8.66538 10.148 8.96691 10.148C9.26844 10.148 9.51288 9.90355 9.51288 9.60203V5.59634C9.51288 5.29481 9.26844 5.05037 8.96691 5.05037C8.66538 5.05037 8.42095 5.29481 8.42095 5.59634V9.60203Z" fill="white"/>
<path d="M10.3547 11.2572C10.3547 11.5588 10.5991 11.8032 10.9007 11.8032C11.2022 11.8032 11.4466 11.5588 11.4466 11.2572V3.7428C11.4466 3.44128 11.2022 3.19684 10.9007 3.19684C10.5991 3.19684 10.3547 3.44128 10.3547 3.7428V11.2572Z" fill="white"/>
<path d="M12.3181 9.19693C12.3181 9.4975 12.5618 9.74116 12.8624 9.74116C13.1629 9.74116 13.4066 9.4975 13.4066 9.19693V5.89255C13.4066 5.59198 13.1629 5.34832 12.8624 5.34832C12.5618 5.34832 12.3181 5.59198 12.3181 5.89255V9.19693Z" fill="white"/>
<path d="M20.0903 9.1088L22.2058 4.17718C22.3481 3.84796 22.5973 3.68335 22.9532 3.68335H22.9665C23.2557 3.68335 23.4804 3.80569 23.6405 4.05038C23.734 4.1883 23.7807 4.33289 23.7807 4.48415C23.7807 4.59093 23.7562 4.69992 23.7073 4.81115L21.2315 10.597C21.0268 11.113 20.6487 11.3711 20.097 11.3711C19.5364 11.3711 19.156 11.113 18.9558 10.597L16.4733 4.81115C16.4289 4.69992 16.4066 4.59315 16.4066 4.49083C16.4066 4.33956 16.4533 4.19275 16.5468 4.05038C16.7069 3.80569 16.9316 3.68335 17.2208 3.68335H17.2408C17.5967 3.68335 17.8436 3.84796 17.9815 4.17718C19.0448 6.66412 19.6588 8.09667 19.8234 8.47483C19.8234 8.49262 19.9124 8.70395 20.0903 9.1088Z" fill="white"/>
<path d="M28.1092 5.33167C27.4952 5.33167 26.9725 5.54744 26.5409 5.97899C26.1138 6.41053 25.9003 6.93328 25.9003 7.54723C25.9003 8.15673 26.1138 8.67725 26.5409 9.1088C26.9725 9.54034 27.4952 9.75611 28.1092 9.75611C28.7187 9.75611 29.2392 9.54034 29.6707 9.1088C30.1023 8.67725 30.3181 8.15673 30.3181 7.54723C30.3181 6.93328 30.1023 6.41053 29.6707 5.97899C29.2392 5.54744 28.7187 5.33167 28.1092 5.33167ZM28.1092 3.68335C29.168 3.68335 30.0734 4.05928 30.8252 4.81115C31.5771 5.56301 31.953 6.46837 31.953 7.52721C31.953 8.58605 31.5771 9.4914 30.8252 10.2433C30.0734 10.9951 29.168 11.3711 28.1092 11.3711C27.0503 11.3711 26.145 10.9951 25.3931 10.2433C24.6412 9.4914 24.2653 8.58605 24.2653 7.52721C24.2653 6.46837 24.6412 5.56301 25.3931 4.81115C26.145 4.05928 27.0503 3.68335 28.1092 3.68335Z" fill="white"/>
<path d="M34.0326 3.68335C34.2595 3.68335 34.4486 3.76343 34.5998 3.92359C34.76 4.08375 34.8401 4.27505 34.8401 4.4975V10.5636C34.8401 10.7905 34.76 10.9796 34.5998 11.1308C34.4486 11.291 34.2595 11.3711 34.0326 11.3711H34.0192C33.7968 11.3711 33.6055 11.291 33.4453 11.1308C33.2852 10.9796 33.2051 10.7905 33.2051 10.5636V4.4975C33.2051 4.27505 33.2852 4.08375 33.4453 3.92359C33.6055 3.76343 33.7968 3.68335 34.0192 3.68335H34.0326Z" fill="white"/>
<path d="M39.9427 3.68335C40.3431 3.68335 40.7301 3.74341 41.1038 3.86353C41.482 3.98365 41.6711 4.24169 41.6711 4.63764V4.67101C41.6711 4.94239 41.5621 5.15816 41.3441 5.31832C41.1928 5.4251 41.0371 5.47848 40.8769 5.47848C40.7924 5.47848 40.7056 5.46514 40.6167 5.43844C40.3987 5.36726 40.174 5.33167 39.9427 5.33167C39.3287 5.33167 38.806 5.54744 38.3744 5.97899C37.9473 6.41053 37.7338 6.93328 37.7338 7.54723C37.7338 8.15673 37.9473 8.67725 38.3744 9.1088C38.806 9.54034 39.3287 9.75611 39.9427 9.75611C40.174 9.75611 40.3987 9.72052 40.6167 9.64934C40.7012 9.62265 40.7857 9.6093 40.8703 9.6093C41.0349 9.6093 41.1928 9.66269 41.3441 9.76946C41.5621 9.92962 41.6711 10.1476 41.6711 10.4235C41.6711 10.815 41.482 11.073 41.1038 11.1976C40.7301 11.3132 40.3431 11.3711 39.9427 11.3711C38.8838 11.3711 37.9785 10.9951 37.2266 10.2433C36.4747 9.4914 36.0988 8.58605 36.0988 7.52721C36.0988 6.46837 36.4747 5.56301 37.2266 4.81115C37.9785 4.05928 38.8838 3.68335 39.9427 3.68335Z" fill="white"/>
<path d="M47.1851 5.55289C46.6236 5.30458 46.0583 5.2905 45.4891 5.51064C44.9239 5.73259 44.5172 6.1243 44.2689 6.6858L44.25 6.72852L48.3391 6.70534C48.1964 6.21414 47.8117 5.82998 47.1851 5.55289ZM50.1369 7.50764C50.1407 7.63095 50.1193 7.7455 50.0725 7.85129C50.0347 7.93674 49.9806 8.01499 49.9103 8.08604C49.7566 8.24668 49.5652 8.32744 49.3362 8.32832C48.6532 8.33275 47.7552 8.33939 46.6422 8.34824C45.2604 8.35984 44.4491 8.36835 44.2083 8.37376C44.3448 8.90112 44.7406 9.30964 45.3957 9.59933C45.8311 9.79186 46.2824 9.83822 46.7498 9.73843C47.2072 9.6391 47.5932 9.42066 47.9079 9.08309C48.1734 8.80163 48.4832 8.73917 48.8372 8.89571C49.0894 9.00726 49.2441 9.20212 49.301 9.48027C49.3371 9.65186 49.3236 9.80886 49.2606 9.95126C49.2228 10.0367 49.1678 10.117 49.0957 10.1921C48.548 10.7817 47.8785 11.157 47.0874 11.3179C46.281 11.4915 45.4994 11.411 44.7425 11.0763C43.7742 10.6481 43.0982 9.9381 42.7147 8.94639C42.3311 7.95467 42.3535 6.97462 42.7817 6.00624C43.2099 5.03786 43.9199 4.3619 44.9116 3.97836C45.9033 3.59481 46.8834 3.61716 47.8518 4.04539C48.5516 4.35487 49.1058 4.8286 49.5145 5.46657C49.9226 6.09461 50.1301 6.77496 50.1369 7.50764Z" fill="white"/>
</svg>
